# xmcd
#
# Track frame offsets:
#	150
#	14555
#	30723
#	44972
#	58211
#	72707
#	85511
#	100143
#	113346
#	131178
#	151713
#	166579
#	179581
#	192088
#	205094
#	220156
#	233154
#	247914
#	259266
#
# Disc length: 3650 seconds
#
# Revision: 1
# Processed by: cddbd v1.5.2PL0 Copyright (c) Steve Scherf et al.
# Submitted via: EasyCDDAExtractor 11.0.2.1
#
DISCID=090e4013
DTITLE=สุรพล สมบัติเจริญ - มอง
DYEAR=1991
DGENRE=Country
TTITLE0=16ปีแห่งความหลัง
TTITLE1=น้ำตาจ่าโท
TTITLE2=มอง
TTITLE3=หัวใจผมเดาะ
TTITLE4=หัวใจผมว่าง
TTITLE5=แตงเถาตาย
TTITLE6=ป่าซาง
TTITLE7=สาวสวนแตง
TTITLE8=น้ำตาผัว
TTITLE9=ลูกแก้วเมียขวัญ
TTITLE10=กว๊านพะเยา
TTITLE11=สวยจริงๆ
TTITLE12=น้ำค้างเดือนหก
TTITLE13=หนึ่งไม่มีสอง
TTITLE14=เป็นโสตทำไม
TTITLE15=พี่ยังไม่แก่หรอกน้อง
TTITLE16=สร้างวิมาน
TTITLE17=ผมเบื่อคุณ
TTITLE18=มนต์ป่าซาง
EXTD=
EXTT0=
EXTT1=
EXTT2=
EXTT3=
EXTT4=
EXTT5=
EXTT6=
EXTT7=
EXTT8=
EXTT9=
EXTT10=
EXTT11=
EXTT12=
EXTT13=
EXTT14=
EXTT15=
EXTT16=
EXTT17=
EXTT18=
PLAYORDER=
